<?xml version="1.0" standalone="no"?><!DOCTYPE svg PUBLIC "-//W3C//DTD SVG 1.1//EN" "http://www.w3.org/Graphics/SVG/1.1/DTD/svg11.dtd"><svg class="icon" width="24px" height="24.00px" viewBox="0 0 1024 1024" version="1.1" xmlns="http://www.w3.org/2000/svg"><path fill="#515151" d="M429.9 872.8H218.7l232.1-232.1c17.2-17.2 17.2-45 0-62.2-17.2-17.2-45-17.2-62.2 0L152.8 814.2V604.8c0-24.3-19.7-44-44-44s-44 19.7-44 44v312c0 24.3 19.7 44 44 44h321c24.3 0 44-19.7 44-44s-19.6-44-43.9-44z m486-808h-321c-24.3 0-44 19.7-44 44s19.7 44 44 44H806l-232.1 232c-17.2 17.2-17.2 45 0 62.2 8.6 8.6 19.9 12.9 31.1 12.9 11.3 0 22.5-4.3 31.1-12.9l235.7-235.7v209.4c0 24.3 19.7 44 44 44s44-19.7 44-44v-312c0.1-24.2-19.6-43.9-43.9-43.9z" /></svg>