<?xml version="1.0" standalone="no"?><!DOCTYPE svg PUBLIC "-//W3C//DTD SVG 1.1//EN" "http://www.w3.org/Graphics/SVG/1.1/DTD/svg11.dtd"><svg class="icon" width="24px" height="24.00px" viewBox="0 0 1024 1024" version="1.1" xmlns="http://www.w3.org/2000/svg"><path fill="#515151" d="M292.022504 424.956095c-30.396792 0-54.993624 24.596832-54.993624 54.993624s24.696831 54.994624 54.993624 54.994624c30.396792 0 54.994624-24.597832 54.994624-54.994624s-24.597832-54.993624-54.994624-54.993624z m439.953992 0c-30.396792 0-54.993624 24.596832-54.993624 54.993624s24.696831 54.994624 54.993624 54.994624 54.894625-24.597832 54.994624-54.994624c0-30.396792-24.697831-54.993624-54.994624-54.993624z m-219.976496 0c-30.396792 0-54.994624 24.596832-54.994624 54.993624s24.697831 54.994624 54.994624 54.994624 54.993624-24.597832 54.993624-54.994624S542.296793 424.957095 512 424.957095zM983.350778 291.869005c-25.897823-57.09361-62.993569-108.388259-110.289246-152.383959-46.994679-43.794701-101.689305-78.191465-162.582889-102.189301C647.585073 12.599914 580.79253 0 512 0c-68.79353 0-135.586073 12.598914-198.478643 37.295745-60.894584 23.997836-115.58921 58.394601-162.583889 102.189301-47.194677 43.995699-84.291424 95.190349-110.289246 152.383959C13.752406 351.263599 0.0535 414.357167 0.0535 479.349723c0 116.888201 45.094692 228.676437 127.18613 316.267838l23.097842 196.578656c1.39999 11.998918 8.699941 22.497846 19.497867 27.89681a35.789755 35.789755 0 0 0 16.198889 3.899973c6.098958 0 12.297916-1.599989 17.797879-4.699968l148.283986-84.290424c51.394649 15.797892 105.089282 23.796837 159.783908 23.796838 68.79253 0 135.586073-12.597914 198.478643-37.295745 60.893584-23.997836 115.58921-58.393601 162.582888-102.189302 47.195677-43.995699 84.291424-95.189349 110.289247-152.383958 26.996815-59.393594 40.595722-122.387163 40.595722-187.480718 0.099999-65.092555-13.598907-128.186124-40.495723-187.580718zM917.757226 637.033645c-21.99785 48.394669-53.494634 91.989371-93.789359 129.486115-40.396724 37.595743-87.491402 67.193541-139.986043 87.891399-54.494627 21.496853-112.389232 32.295779-172.081823 32.29578-52.294643 0-103.589292-8.398943-152.18396-24.99683-9.799933-3.299977-20.49786-2.299984-29.397799 2.799981L215.432027 929.802644 197.232152 775.118701c-0.899994-7.998945-4.499969-15.397895-10.098931-21.097855C112.942728 678.82936 72.046007 581.239027 72.046007 479.349723c0-54.693626 11.498921-107.689264 34.195767-157.682922 21.99785-48.395669 53.494634-91.990371 93.790359-129.487115 40.395724-37.595743 87.491402-67.192541 139.986043-87.890399C394.410804 82.891433 452.306408 71.992508 512 71.992508s117.587196 10.898925 172.081824 32.296779c52.494641 20.697859 99.589319 50.194657 139.985043 87.890399 40.195725 37.496744 71.792509 80.991446 93.790359 129.487115 22.697845 49.994658 34.196766 102.989296 34.196766 157.682922-0.099999 54.694626-11.599921 107.689264-34.296766 157.683922z" /></svg>